# xmcd
#
# Track frame offsets: 
#        150
#        11507
#        21649
#        33844
#        46977
#        58353
#        69023
#        79190
#        88962
#        104884
#        115894
#        124667
#        142818
#        154176
#        171521
#        182176
#        195648
#        209006
#
# Disc length: 2918 seconds
#
# Revision: 0
# Processed by: cddbd v1.5.2PL0 Copyright (c) Steve Scherf et al.
# Submitted via: ExactAudioCopy v0.95b4
#
DISCID=090b6412
DTITLE=John Lee Hooker - Together
DYEAR=1900
DGENRE=Blues
TTITLE0=Boon Boom
TTITLE1=Dimples
TTITLE2=I'm in the mood
TTITLE3=I'm so excited
TTITLE4=Hard Hearted Woman
TTITLE5=Want Ad Blues
TTITLE6=Onions
TTITLE7=Thelma
TTITLE8=Send me your pillow
TTITLE9=Lost a Good Girl
TTITLE10=House Rent Boogie
TTITLE11=What Do You Say
TTITLE12=Blues before Sunrise
TTITLE13=Blues before Sunrise
TTITLE14=Keep your hands to yourself
TTITLE15=I'm going upstairs
TTITLE16=Baby Lee
TTITLE17=I'm Leaving, Baby
EXTD=
EXTT0=
EXTT1=
EXTT2=
EXTT3=
EXTT4=
EXTT5=
EXTT6=
EXTT7=
EXTT8=
EXTT9=
EXTT10=
EXTT11=
EXTT12=
EXTT13=
EXTT14=
EXTT15=
EXTT16=
EXTT17=
PLAYORDER=
